HIERARCHY
ROOT Hips
{
	OFFSET 0.000000 83.214638 0.000000
	CHANNELS 6 Xposition Yposition Zposition Xrotation Yrotation Zrotation
	JOINT Pelvis
	{
		OFFSET 0.000000 0.000000 0.000000
		CHANNELS 3 Xrotation Yrotation Zrotation
		JOINT LeftUpLeg
		{
			OFFSET 8.479700 -4.795502 -0.379100
			CHANNELS 3 Xrotation Yrotation Zrotation
			JOINT LeftLeg
			{
				OFFSET 0.024144 -32.555107 0.112900
				CHANNELS 3 Xrotation Yrotation Zrotation
				JOINT LeftFoot
				{
					OFFSET -0.024144 -32.638630 -3.012600
					CHANNELS 3 Xrotation Yrotation Zrotation
					JOINT LeftToeBase
					{
						OFFSET 0.970200 -13.225400 11.864200
						CHANNELS 3 Xrotation Yrotation Zrotation
						End Site
						{
							OFFSET 0.000000 12.319262 0.000000
						}
					}
					JOINT LFootTongue
					{
						OFFSET 1.142400 -1.059800 6.665200
						CHANNELS 3 Xrotation Yrotation Zrotation
						End Site
						{
							OFFSET 0.000000 12.319262 0.000000
						}
					}
				}
				JOINT LeftPantLeg
				{
					OFFSET 0.918482 -16.533964 -2.284700
					CHANNELS 3 Xrotation Yrotation Zrotation
					End Site
					{
						OFFSET 0.350399 24.744368 0.000000
					}
				}
			}
		}
		JOINT RightUpLeg
		{
			OFFSET -8.479700 -4.795502 -0.379100
			CHANNELS 3 Xrotation Yrotation Zrotation
			JOINT RightLeg
			{
				OFFSET -0.023144 -32.555092 0.112900
				CHANNELS 3 Xrotation Yrotation Zrotation
				JOINT RightFoot
				{
					OFFSET 0.023144 -32.638641 -3.012700
					CHANNELS 3 Xrotation Yrotation Zrotation
					JOINT RightToeBase
					{
						OFFSET -0.970200 -13.225400 11.864200
						CHANNELS 3 Xrotation Yrotation Zrotation
						End Site
						{
							OFFSET 0.000000 12.319244 0.000000
						}
					}
					JOINT RFootTongue
					{
						OFFSET -1.142200 -1.059800 6.665200
						CHANNELS 3 Xrotation Yrotation Zrotation
						End Site
						{
							OFFSET 0.000000 12.319243 0.000000
						}
					}
				}
				JOINT RightPantLeg
				{
					OFFSET -0.919482 -16.533978 -2.284800
					CHANNELS 3 Xrotation Yrotation Zrotation
					End Site
					{
						OFFSET -0.350400 24.744419 0.000000
					}
				}
			}
		}
	}
	JOINT Spine
	{
		OFFSET 0.000000 7.722000 1.166200
		CHANNELS 3 Xrotation Yrotation Zrotation
		JOINT Spine1
		{
			OFFSET 0.000000 12.024101 0.248800
			CHANNELS 3 Xrotation Yrotation Zrotation
			JOINT Spine2
			{
				OFFSET 0.000000 11.502998 -0.491200
				CHANNELS 3 Xrotation Yrotation Zrotation
				JOINT Neck
				{
					OFFSET 0.000000 18.430702 -3.123100
					CHANNELS 3 Xrotation Yrotation Zrotation
					JOINT Head
					{
						OFFSET 0.000000 9.051102 1.034000
						CHANNELS 3 Xrotation Yrotation Zrotation
						JOINT HairB
						{
							OFFSET 0.208400 24.786102 24.822300
							CHANNELS 3 Xrotation Yrotation Zrotation
							End Site
							{
								OFFSET 0.000000 32.263779 0.000000
							}
						}
						JOINT HairA
						{
							OFFSET -7.081100 24.428299 23.196600
							CHANNELS 3 Xrotation Yrotation Zrotation
							End Site
							{
								OFFSET 0.000000 32.263779 0.000000
							}
						}
						JOINT Hat
						{
							OFFSET 16.728800 15.048294 -15.439601
							CHANNELS 3 Xrotation Yrotation Zrotation
							End Site
							{
								OFFSET 0.000000 32.263779 0.000000
							}
						}
					}
				}
				JOINT LeftShoulder
				{
					OFFSET 6.197800 13.665199 -4.064700
					CHANNELS 3 Xrotation Yrotation Zrotation
					JOINT LeftArm
					{
						OFFSET 7.778100 -0.187103 -1.709300
						CHANNELS 3 Xrotation Yrotation Zrotation
						JOINT LeftForeArm
						{
							OFFSET 22.049376 0.000000 0.000000
							CHANNELS 3 Xrotation Yrotation Zrotation
							JOINT LeftHand
							{
								OFFSET 23.009392 0.000000 0.000000
								CHANNELS 3 Xrotation Yrotation Zrotation
								JOINT LeftHandThumb1
								{
									OFFSET 3.507191 -2.063065 3.133727
									CHANNELS 3 Xrotation Yrotation Zrotation
									JOINT LeftHandThumb2
									{
										OFFSET 3.101337 -1.790558 1.790558
										CHANNELS 3 Xrotation Yrotation Zrotation
										JOINT LeftHandThumb3
										{
											OFFSET 3.058640 -1.765907 1.765906
											CHANNELS 3 Xrotation Yrotation Zrotation
											End Site
											{
												OFFSET -0.415260 3.926476 -0.049563
											}
										}
									}
								}
								JOINT LeftHandIndex1
								{
									OFFSET 11.334419 -0.901459 3.706815
									CHANNELS 3 Xrotation Yrotation Zrotation
									JOINT LeftHandIndex2
									{
										OFFSET 3.283112 0.000000 0.000000
										CHANNELS 3 Xrotation Yrotation Zrotation
										JOINT LeftHandIndex3
										{
											OFFSET 3.323853 0.000000 0.000000
											CHANNELS 3 Xrotation Yrotation Zrotation
											End Site
											{
												OFFSET -1.135597 3.097809 0.402452
											}
										}
									}
								}
								JOINT LeftHandMiddle1
								{
									OFFSET 11.335861 0.000000 0.000000
									CHANNELS 3 Xrotation Yrotation Zrotation
									JOINT LeftHandMiddle2
									{
										OFFSET 3.410492 0.000000 0.000000
										CHANNELS 3 Xrotation Yrotation Zrotation
										JOINT LeftHandMiddle3
										{
											OFFSET 3.312172 0.000000 0.000000
											CHANNELS 3 Xrotation Yrotation Zrotation
											End Site
											{
												OFFSET -1.150200 3.080154 0.400270
											}
										}
									}
								}
								JOINT LeftHandRing1
								{
									OFFSET 11.514786 -0.013176 -3.003090
									CHANNELS 3 Xrotation Yrotation Zrotation
									JOINT LeftHandRing2
									{
										OFFSET 3.053307 0.000000 0.000000
										CHANNELS 3 Xrotation Yrotation Zrotation
										JOINT LeftHandRing3
										{
											OFFSET 3.295807 0.000000 0.000000
											CHANNELS 3 Xrotation Yrotation Zrotation
											End Site
											{
												OFFSET -1.281006 3.013344 0.375733
											}
										}
									}
								}
								JOINT LeftHandPinky1
								{
									OFFSET 10.518692 -0.960396 -5.730441
									CHANNELS 3 Xrotation Yrotation Zrotation
									JOINT LeftHandPinky2
									{
										OFFSET 2.861649 0.000000 0.000000
										CHANNELS 3 Xrotation Yrotation Zrotation
										JOINT LeftHandPinky3
										{
											OFFSET 2.863380 0.000000 0.000000
											CHANNELS 3 Xrotation Yrotation Zrotation
											End Site
											{
												OFFSET -0.843597 2.711159 0.369971
											}
										}
									}
								}
							}
							JOINT LSleeve
							{
								OFFSET 6.676277 -0.344902 -1.011730
								CHANNELS 3 Xrotation Yrotation Zrotation
								End Site
								{
									OFFSET 0.000000 14.885353 0.000000
								}
							}
						}
					}
				}
				JOINT RightShoulder
				{
					OFFSET -6.197800 13.665199 -4.064700
					CHANNELS 3 Xrotation Yrotation Zrotation
					JOINT RightArm
					{
						OFFSET -7.778100 -0.187103 -1.709300
						CHANNELS 3 Xrotation Yrotation Zrotation
						JOINT RightForeArm
						{
							OFFSET -22.049376 0.000000 0.000000
							CHANNELS 3 Xrotation Yrotation Zrotation
							JOINT RightHand
							{
								OFFSET -23.009392 0.000000 0.000000
								CHANNELS 3 Xrotation Yrotation Zrotation
								JOINT RightHandThumb1
								{
									OFFSET -3.507191 -2.063065 3.133727
									CHANNELS 3 Xrotation Yrotation Zrotation
									JOINT RightHandThumb2
									{
										OFFSET -3.101337 -1.790558 1.790558
										CHANNELS 3 Xrotation Yrotation Zrotation
										JOINT RightHandThumb3
										{
											OFFSET -3.058640 -1.765907 1.765906
											CHANNELS 3 Xrotation Yrotation Zrotation
											End Site
											{
												OFFSET 0.415260 3.926476 -0.049563
											}
										}
									}
								}
								JOINT RightHandIndex1
								{
									OFFSET -11.334419 -0.901459 3.706815
									CHANNELS 3 Xrotation Yrotation Zrotation
									JOINT RightHandIndex2
									{
										OFFSET -3.283112 0.000000 0.000000
										CHANNELS 3 Xrotation Yrotation Zrotation
										JOINT RightHandIndex3
										{
											OFFSET -3.323853 0.000000 0.000000
											CHANNELS 3 Xrotation Yrotation Zrotation
											End Site
											{
												OFFSET 1.135597 3.097809 0.402452
											}
										}
									}
								}
								JOINT RightHandMiddle1
								{
									OFFSET -11.335861 0.000000 0.000000
									CHANNELS 3 Xrotation Yrotation Zrotation
									JOINT RightHandMiddle2
									{
										OFFSET -3.410492 0.000000 0.000000
										CHANNELS 3 Xrotation Yrotation Zrotation
										JOINT RightHandMiddle3
										{
											OFFSET -3.312172 0.000000 0.000000
											CHANNELS 3 Xrotation Yrotation Zrotation
											End Site
											{
												OFFSET 1.150200 3.080154 0.400270
											}
										}
									}
								}
								JOINT RightHandRing1
								{
									OFFSET -11.514786 -0.013176 -3.003090
									CHANNELS 3 Xrotation Yrotation Zrotation
									JOINT RightHandRing2
									{
										OFFSET -3.053307 0.000000 0.000000
										CHANNELS 3 Xrotation Yrotation Zrotation
										JOINT RightHandRing3
										{
											OFFSET -3.295807 0.000000 0.000000
											CHANNELS 3 Xrotation Yrotation Zrotation
											End Site
											{
												OFFSET 1.281006 3.013344 0.375733
											}
										}
									}
								}
								JOINT RightHandPinky1
								{
									OFFSET -10.518692 -0.960396 -5.730441
									CHANNELS 3 Xrotation Yrotation Zrotation
									JOINT RightHandPinky2
									{
										OFFSET -2.861649 0.000000 0.000000
										CHANNELS 3 Xrotation Yrotation Zrotation
										JOINT RightHandPinky3
										{
											OFFSET -2.863380 0.000000 0.000000
											CHANNELS 3 Xrotation Yrotation Zrotation
											End Site
											{
												OFFSET 0.843597 2.711159 0.369971
											}
										}
									}
								}
							}
							JOINT RSleeve
							{
								OFFSET -6.676277 -0.344902 -1.011730
								CHANNELS 3 Xrotation Yrotation Zrotation
								End Site
								{
									OFFSET 0.000000 14.885353 0.000000
								}
							}
						}
					}
				}
				JOINT Backpack
				{
					OFFSET 0.000000 -2.471497 36.677502
					CHANNELS 3 Xrotation Yrotation Zrotation
					End Site
					{
						OFFSET 0.000000 20.427315 0.000000
					}
				}
				JOINT Hood
				{
					OFFSET 0.000000 18.754097 -10.431000
					CHANNELS 3 Xrotation Yrotation Zrotation
					JOINT Hood1
					{
						OFFSET 0.000000 -5.011002 -7.685901
						CHANNELS 3 Xrotation Yrotation Zrotation
						End Site
						{
							OFFSET 0.000000 9.175140 0.000000
						}
					}
				}
				JOINT LHoodieString
				{
					OFFSET 5.250500 16.397697 3.089900
					CHANNELS 3 Xrotation Yrotation Zrotation
					JOINT LHoodieString1
					{
						OFFSET 0.257700 -6.364304 3.694600
						CHANNELS 3 Xrotation Yrotation Zrotation
						JOINT LHoodieString2
						{
							OFFSET 0.000000 -9.643799 2.679100
							CHANNELS 3 Xrotation Yrotation Zrotation
							End Site
							{
								OFFSET 0.000000 10.009018 0.000000
							}
						}
					}
				}
				JOINT RHoodieString
				{
					OFFSET -5.250500 16.397697 3.089900
					CHANNELS 3 Xrotation Yrotation Zrotation
					JOINT RHoodieString1
					{
						OFFSET -0.257700 -6.364304 3.694600
						CHANNELS 3 Xrotation Yrotation Zrotation
						JOINT RHoodieString2
						{
							OFFSET 0.000000 -9.643799 2.679100
							CHANNELS 3 Xrotation Yrotation Zrotation
							End Site
							{
								OFFSET 0.000000 10.009018 0.000000
							}
						}
					}
				}
			}
			JOINT LBackpack_Strap
			{
				OFFSET 15.223200 -7.719803 -6.610900
				CHANNELS 3 Xrotation Yrotation Zrotation
				End Site
				{
					OFFSET 0.000000 16.040596 0.000000
				}
			}
			JOINT RBackpack_Strap
			{
				OFFSET -15.223000 -7.719803 -6.610900
				CHANNELS 3 Xrotation Yrotation Zrotation
				End Site
				{
					OFFSET 0.000000 16.040596 0.000000
				}
			}
		}
	}
	JOINT BoyFacialAnim_Joint
	{
		OFFSET 1.000000 -82.208099 -1.550900
		CHANNELS 3 Xrotation Yrotation Zrotation
		End Site
		{
			OFFSET 0.000000 30.012791 0.000000
		}
	}
}
MOTION
Frames: 4
Frame Time: 0.033333
0.047584 82.446045 0.241438 -3.739609 1.790658 -3.040164 0.000000 0.000000 -0.000000 -11.810740 14.464148 10.859802 13.140714 1.995857 4.176486 1.419443 0.535497 -7.636052 0.000000 0.000000 0.000000 0.000000 0.000000 -0.000000 -0.000000 -0.000001 -0.000000 1.273632 -10.333420 3.326650 6.018007 -9.730756 -3.275902 -3.010914 -1.626384 3.127615 -0.000000 0.000000 0.000000 -0.000000 0.000000 0.000000 -0.000000 -0.000001 -0.000000 3.300673 1.528330 2.470159 1.146036 0.330724 1.552971 1.123712 0.353281 1.550934 5.622651 -0.066618 0.463899 -7.551129 1.374704 -0.084355 -0.000000 0.000000 -0.000000 -0.000000 0.000000 -0.000000 -0.000000 0.000000 -0.000000 1.047435 -17.446289 -12.316920 3.915818 -19.989413 -69.767589 -0.000008 -1.453263 -0.000014 -33.228293 -1.359639 -6.191117 -0.666099 2.158569 4.837339 11.859849 25.414854 17.056055 0.000000 0.000001 0.000004 -0.407822 -0.912720 -7.567485 0.268845 1.755996 -17.407490 0.000001 0.000000 0.000002 -0.077459 2.661820 -15.698710 0.268773 1.755778 -17.405246 0.000002 -0.000000 -0.000003 0.137975 3.644580 -21.134851 0.386568 2.094652 -20.910467 -0.000000 0.000000 0.000001 0.968550 5.534946 -27.130785 0.268810 1.755892 -17.406390 -0.000001 0.000001 0.000002 0.000000 0.000000 0.000000 1.189529 15.344122 14.707060 13.162756 27.550881 58.780963 0.000006 6.689802 0.000013 -20.174743 -0.523588 6.792841 -1.664523 -0.169113 -4.216940 12.706693 -29.838177 -16.131510 -0.000000 0.000003 0.000002 -0.390918 1.215754 6.807104 0.214627 -1.398905 17.443950 -0.000000 0.000000 0.000004 -0.135891 -2.206389 14.998780 0.214465 -1.398413 17.437693 0.000004 0.000000 -0.000000 0.031307 -3.078204 20.463788 0.308444 -1.668282 20.948547 -0.000003 0.000001 -0.000003 0.790098 -4.865174 26.475283 0.214445 -1.398332 17.436472 0.000001 0.000001 0.000000 0.000001 0.000000 0.000000 0.000000 0.000000 -0.000000 0.000000 0.000000 -0.000000 0.000000 0.000000 -0.000000 0.000000 0.000000 -0.000000 0.000000 0.000000 -0.000000 0.000000 0.000000 0.000000 0.000000 0.000000 -0.000000 0.000000 0.000000 -0.000000 0.000000 0.000000 0.000000 -0.000000 -0.000000 -0.000000 -0.000000 -0.000000 -0.000000 0.000000 0.000000 -0.000000 
0.053361 82.447891 0.219913 -3.739954 1.790526 -3.038404 -0.000000 0.000000 0.000000 -11.798116 14.464145 10.832905 13.094764 2.011365 4.177233 1.456603 0.535766 -7.638259 0.000000 0.000002 -0.000000 0.000000 0.000002 -0.000000 -0.000000 -0.000001 -0.000000 1.253130 -10.348455 3.301455 6.017607 -9.720855 -3.259711 -2.986981 -1.622057 3.126095 0.000000 -0.000000 -0.000000 0.000000 -0.000000 -0.000000 0.000000 -0.000002 -0.000000 3.313473 1.536293 2.484430 1.109684 0.330725 1.552971 1.087343 0.353281 1.550933 5.534476 -0.066617 0.435602 -7.571091 1.362483 -0.131933 -0.000000 -0.000000 0.000000 -0.000000 -0.000000 0.000000 -0.000000 -0.000000 0.000000 1.054526 -17.442418 -12.295689 4.011074 -20.089606 -69.730057 -0.000002 -1.572911 -0.000007 -33.185604 -1.283890 -6.206721 -0.697196 2.104865 4.899325 11.861910 25.424725 17.060761 -0.000000 -0.000002 0.000000 -0.407041 -0.894452 -7.588777 0.267705 1.752364 -17.370274 0.000000 0.000001 -0.000002 -0.089944 2.615562 -15.681587 0.268664 1.755429 -17.401626 0.000001 -0.000000 0.000004 0.139681 3.652258 -21.210818 0.390004 2.103607 -21.004237 -0.000000 -0.000001 -0.000002 0.927036 5.460130 -26.825752 0.268241 1.754087 -17.387862 0.000001 0.000000 -0.000000 -0.000002 0.000000 0.000000 1.199508 15.279746 14.552591 13.213348 27.600390 58.897104 0.000006 6.864007 0.000002 -20.035644 -0.611518 6.810341 -1.704160 -0.094162 -4.263025 12.730178 -29.898989 -16.136978 0.000002 0.000001 0.000001 -0.411947 1.255539 7.036153 0.214195 -1.397553 17.426633 0.000000 -0.000000 0.000000 -0.150027 -2.163991 15.113547 0.213958 -1.396744 17.416209 0.000006 -0.000000 0.000003 0.021018 -3.041450 20.264495 0.305851 -1.661503 20.859454 0.000001 0.000003 -0.000001 0.855641 -5.019395 25.691990 0.204208 -1.365297 17.011819 0.000001 -0.000001 -0.000001 -0.000003 -0.000000 -0.000000 0.000000 0.000000 -0.000000 0.000000 0.000000 -0.000000 0.000000 0.000000 -0.000000 0.000000 0.000000 -0.000000 0.000000 0.000000 -0.000000 -0.000000 -0.000000 -0.000000 0.000000 0.000000 -0.000000 0.000000 0.000000 -0.000000 -0.000000 -0.000000 -0.000000 -0.000000 0.000000 0.000000 -0.000000 0.000000 0.000000 -0.000000 0.000000 0.000000 
0.054312 82.447746 0.196163 -3.757385 1.790508 -3.038073 -0.000000 0.000000 -0.000000 -11.796356 14.477044 10.841914 13.082808 1.985899 4.177313 1.482637 0.534412 -7.614848 0.000000 -0.000002 0.000000 0.000000 -0.000002 0.000000 -0.000000 -0.000000 -0.000000 1.243606 -10.344202 3.313380 6.034588 -9.730542 -3.265246 -2.980833 -1.621521 3.114521 0.000000 -0.000002 -0.000000 0.000000 -0.000002 -0.000000 0.000000 0.000000 0.000000 3.345511 1.542253 2.512615 1.075382 0.330725 1.552970 1.053027 0.353282 1.550933 5.435402 -0.063701 0.388480 -7.592708 1.381381 -0.171901 0.000000 0.000000 -0.000000 0.000000 0.000000 -0.000000 0.000000 0.000000 -0.000000 1.052515 -17.430407 -12.310939 4.115932 -20.160441 -69.648477 0.000002 -1.726532 0.000002 -33.230615 -1.145233 -6.194018 -0.588438 2.265121 4.911169 11.922814 25.526729 17.030032 -0.000001 -0.000002 0.000001 -0.414793 -0.862590 -7.755820 0.268561 1.755097 -17.398274 0.000001 -0.000001 -0.000002 -0.067048 2.718690 -15.934005 0.269698 1.758724 -17.435366 0.000002 -0.000001 -0.000003 0.131429 3.639325 -21.401088 0.387323 2.096628 -20.931164 -0.000001 -0.000000 -0.000006 0.739593 5.094741 -26.159121 0.265208 1.744360 -17.288358 0.000000 0.000000 -0.000000 0.000002 -0.000000 -0.000000 1.211308 15.201132 14.374203 13.193296 27.659819 59.033707 0.000002 6.987753 0.000005 -19.946265 -0.726514 6.766199 -1.718170 -0.065125 -4.293041 12.708110 -29.852418 -16.136373 0.000002 0.000005 0.000003 -0.418832 1.258976 7.125644 0.217729 -1.408722 17.570559 -0.000001 0.000001 0.000002 -0.165222 -2.109633 15.137067 0.213008 -1.393731 17.377345 0.000006 -0.000001 0.000003 -0.013648 -2.943279 20.184252 0.308291 -1.667892 20.943421 0.000002 0.000000 0.000000 0.988098 -5.314887 25.213012 0.189508 -1.316334 16.383925 -0.000000 0.000002 0.000001 -0.000000 -0.000000 -0.000001 0.000000 0.000000 -0.000000 0.000000 0.000000 -0.000000 0.000000 0.000000 -0.000000 0.000000 0.000000 -0.000000 0.000000 0.000000 -0.000000 -0.000000 -0.000000 -0.000000 0.000000 0.000000 -0.000000 0.000000 0.000000 -0.000000 -0.000000 -0.000000 -0.000000 0.000000 -0.000000 -0.000000 0.000000 -0.000000 -0.000000 -0.000000 0.000000 -0.000000 
0.057347 82.447716 0.175658 -3.770446 1.794109 -3.035694 0.000001 -0.000000 -0.000000 -11.782257 14.479523 10.827644 13.055817 1.974543 4.177864 1.506334 0.533160 -7.596379 0.000000 -0.000001 -0.000000 0.000000 -0.000001 -0.000000 -0.000000 0.000003 0.000000 1.224665 -10.343825 3.306420 6.054359 -9.739111 -3.275542 -2.969605 -1.619756 3.122966 -0.000000 -0.000002 0.000000 -0.000000 -0.000002 0.000000 0.000000 0.000002 0.000000 3.356238 1.541304 2.526098 1.034652 0.330724 1.552971 1.012271 0.353281 1.550933 5.345556 -0.056700 0.349288 -7.533542 1.401761 -0.160974 -0.000000 0.000000 -0.000000 -0.000000 0.000000 -0.000000 -0.000000 0.000000 -0.000000 1.059489 -17.425103 -12.291100 4.228998 -20.206150 -69.607209 0.000002 -1.895920 -0.000002 -33.226968 -0.996056 -6.170968 -0.517332 2.363930 4.972345 11.956991 25.584376 17.012540 0.000000 -0.000001 0.000002 -0.413853 -0.814880 -7.830249 0.268859 1.756039 -17.407907 -0.000001 0.000000 -0.000005 -0.050838 2.791908 -16.138455 0.270717 1.761950 -17.468414 0.000002 -0.000001 -0.000002 0.099905 3.563767 -21.505377 0.382092 2.082907 -20.787647 -0.000000 0.000000 -0.000000 0.563794 4.732290 -25.407554 0.265275 1.744569 -17.290496 -0.000001 0.000000 0.000002 0.000000 0.000000 0.000001 1.222824 15.119781 14.223889 13.233718 27.703872 59.129036 0.000004 7.204901 0.000012 -19.773828 -0.883401 6.739381 -1.695397 -0.118935 -4.206401 12.899219 -30.223092 -16.097270 -0.000001 0.000001 0.000000 -0.452328 1.269590 7.566647 0.214660 -1.399002 17.445253 -0.000002 -0.000001 0.000002 -0.188253 -2.035131 15.247135 0.212351 -1.391625 17.350330 0.000006 -0.000001 -0.000000 0.005754 -2.985213 19.957219 0.305316 -1.660106 20.841124 -0.000002 -0.000000 -0.000001 0.946686 -5.249048 24.731125 0.186624 -1.306492 16.257911 -0.000000 0.000001 -0.000001 0.000001 0.000000 -0.000000 0.000000 0.000000 -0.000000 0.000000 0.000000 -0.000000 0.000000 0.000000 -0.000000 0.000000 0.000000 -0.000000 0.000000 0.000000 -0.000000 0.000000 -0.000000 0.000000 0.000000 0.000000 -0.000000 0.000000 0.000000 -0.000000 0.000000 -0.000000 0.000000 -0.000000 -0.000000 -0.000000 -0.000000 -0.000000 -0.000000 0.000001 -0.000000 -0.000000 
